<svg width="18" height="18" viewBox="0 0 18 18" fill="none" xmlns="http://www.w3.org/2000/svg">
<path d="M14.25 0H3.75C1.68225 0 0 1.68225 0 3.75V14.25C0 16.3177 1.68225 18 3.75 18H14.25C16.3177 18 18 16.3177 18 14.25V3.75C18 1.68225 16.3177 0 14.25 0ZM12 9.75H9.75V12C9.75 12.4148 9.414 12.75 9 12.75C8.586 12.75 8.25 12.4148 8.25 12V9.75H6C5.586 9.75 5.25 9.41475 5.25 9C5.25 8.58525 5.586 8.25 6 8.25H8.25V6C8.25 5.58525 8.586 5.25 9 5.25C9.414 5.25 9.75 5.58525 9.75 6V8.25H12C12.414 8.25 12.75 8.58525 12.75 9C12.75 9.41475 12.414 9.75 12 9.75Z" fill="#EC4969"/>
</svg>
