<svg width="10" height="20" viewBox="0 0 10 20" fill="none" xmlns="http://www.w3.org/2000/svg">
<path d="M9.87942 1.25199C9.87913 1.58377 9.74709 1.90186 9.51234 2.13633L3.11174 8.53693C2.918 8.73061 2.76432 8.96056 2.65947 9.21365C2.55462 9.46673 2.50065 9.73799 2.50065 10.0119C2.50065 10.2859 2.55462 10.5571 2.65947 10.8102C2.76432 11.0633 2.918 11.2933 3.11174 11.4869L9.504 17.8792C9.73195 18.1152 9.85809 18.4313 9.85524 18.7595C9.85239 19.0876 9.72078 19.4014 9.48875 19.6335C9.25673 19.8655 8.94286 19.9971 8.61474 20C8.28662 20.0028 7.97051 19.8767 7.73449 19.6487L1.34223 13.2615C0.482723 12.4003 0 11.2332 0 10.0165C0 8.7998 0.482723 7.63279 1.34223 6.77159L7.74283 0.366817C7.91785 0.191688 8.14088 0.0724106 8.3837 0.0240773C8.62653 -0.024256 8.87824 0.000527255 9.10698 0.0952911C9.33571 0.190055 9.5312 0.35054 9.6687 0.55644C9.8062 0.762339 9.87953 1.0044 9.87942 1.25199Z" fill="#404042"/>
</svg>
