<svg width="35" height="39" viewBox="0 0 35 39" fill="none" xmlns="http://www.w3.org/2000/svg">
<path d="M4.84741 29.0922H30.1512C30.9299 29.0922 31.6972 28.9047 32.3882 28.5454C33.0791 28.1861 33.6733 27.6657 34.1206 27.0282C34.5678 26.3907 34.855 25.6548 34.9577 24.8829C35.0603 24.1109 34.9756 23.3256 34.7106 22.5933L30.1011 9.84933C29.3138 7.01721 27.6206 4.52091 25.2803 2.74221C22.9401 0.963517 20.0816 0.000342768 17.1421 1.64421e-09C14.0821 -4.78281e-05 11.1136 1.04342 8.72671 2.95812C6.3398 4.87282 4.6772 7.54426 4.01343 10.5314L0.215282 22.8148C-0.00834016 23.54 -0.0586126 24.3075 0.0685099 25.0557C0.195632 25.8039 0.4966 26.5118 0.947196 27.1224C1.39779 27.7331 1.98544 28.2294 2.66284 28.5715C3.34025 28.9137 4.08851 29.092 4.84741 29.0922Z" fill="#EC4969"/>
<path d="M9.7478 32.3247C10.1188 34.1515 11.1099 35.7939 12.5532 36.9736C13.9965 38.1533 15.8033 38.7977 17.6673 38.7977C19.5314 38.7977 21.3382 38.1533 22.7815 36.9736C24.2248 35.7939 25.2159 34.1515 25.5869 32.3247H9.7478Z" fill="#EC4969"/>
</svg>
