<svg width="25" height="25" viewBox="0 0 25 25" fill="none" xmlns="http://www.w3.org/2000/svg">
<path d="M4.16665 0H7.29165C9.59282 0 11.4583 1.86548 11.4583 4.16665V7.29165C11.4583 9.59282 9.59282 11.4583 7.29165 11.4583H4.16665C1.86548 11.4583 0 9.59287 0 7.29165V4.16665C0 1.86548 1.86548 0 4.16665 0Z" fill="#EC4969"/>
<path d="M17.7084 0H20.8334C23.1346 0 25 1.86548 25 4.16665V7.29165C25 9.59282 23.1346 11.4583 20.8334 11.4583H17.7084C15.4072 11.4583 13.5417 9.59282 13.5417 7.29165V4.16665C13.5417 1.86548 15.4072 0 17.7084 0Z" fill="#EC4969"/>
<path d="M4.16665 13.5417H7.29165C9.59282 13.5417 11.4583 15.4071 11.4583 17.7083V20.8333C11.4583 23.1345 9.59282 25 7.29165 25H4.16665C1.86548 25 0 23.1345 0 20.8334V17.7084C0 15.4071 1.86548 13.5417 4.16665 13.5417Z" fill="#EC4969"/>
<path d="M17.7084 13.5417H20.8334C23.1346 13.5417 25 15.4071 25 17.7083V20.8333C25 23.1345 23.1346 25 20.8334 25H17.7084C15.4072 25 13.5417 23.1345 13.5417 20.8334V17.7084C13.5417 15.4071 15.4072 13.5417 17.7084 13.5417Z" fill="#EC4969"/>
</svg>
