<svg width="25" height="21" viewBox="0 0 25 21" fill="none" xmlns="http://www.w3.org/2000/svg">
<path d="M19.7917 0H5.20833C2.33646 0 0 2.33646 0 5.20833V15.625C0 18.4969 2.33646 20.8333 5.20833 20.8333H19.7917C22.6635 20.8333 25 18.4969 25 15.625V5.20833C25 2.33646 22.6635 0 19.7917 0ZM22.9167 15.625C22.9167 17.3479 21.5146 18.75 19.7917 18.75H5.20833C3.48542 18.75 2.08333 17.3479 2.08333 15.625V5.20833C2.08333 3.48542 3.48542 2.08333 5.20833 2.08333H19.7917C21.5146 2.08333 22.9167 3.48542 22.9167 5.20833V15.625ZM16.8823 7.50729L13.9729 10.4167L16.8823 13.326C17.2896 13.7333 17.2896 14.3917 16.8823 14.799C16.6792 15.0021 16.4125 15.1042 16.1458 15.1042C15.8792 15.1042 15.6125 15.0021 15.4094 14.799L12.5 11.8896L9.59062 14.799C9.3875 15.0021 9.12083 15.1042 8.85417 15.1042C8.5875 15.1042 8.32083 15.0021 8.11771 14.799C7.71042 14.3917 7.71042 13.7333 8.11771 13.326L11.0271 10.4167L8.11771 7.50729C7.71042 7.1 7.71042 6.44167 8.11771 6.03438C8.525 5.62708 9.18333 5.62708 9.59062 6.03438L12.5 8.94375L15.4094 6.03438C15.8167 5.62708 16.475 5.62708 16.8823 6.03438C17.2896 6.44167 17.2896 7.1 16.8823 7.50729Z" fill="white"/>
</svg>
