<svg width="13" height="14" viewBox="0 0 13 14" fill="none" xmlns="http://www.w3.org/2000/svg">
<path d="M7.69214 7.07669L12.6991 2.07027C13.0099 1.75946 13.0099 1.25555 12.6991 0.944774C12.3883 0.633969 11.8844 0.633969 11.5736 0.944774L6.56717 5.95171L1.56075 0.944774C1.24994 0.633969 0.746032 0.633969 0.435252 0.944774C0.124472 1.25558 0.124447 1.75949 0.435252 2.07027L5.44219 7.07669L0.435252 12.0831C0.124447 12.3939 0.124447 12.8978 0.435252 13.2086C0.746057 13.5194 1.24997 13.5194 1.56075 13.2086L6.56717 8.20166L11.5736 13.2086C11.8844 13.5194 12.3883 13.5194 12.6991 13.2086C13.0099 12.8978 13.0099 12.3939 12.6991 12.0831L7.69214 7.07669Z" fill="white"/>
</svg>
