<svg width="18" height="18" viewBox="0 0 18 18" fill="none" xmlns="http://www.w3.org/2000/svg">
<path d="M0 14.2507H17.9993C17.9993 16.3184 16.3171 18.0006 14.2494 18.0006H3.74984C1.68218 18.0006 0 16.3184 0 14.2507ZM17.9993 8.25097V12.7508H0V8.25097C0 6.18331 1.68218 4.50113 3.74984 4.50113H4.68955C3.62685 3.45117 3.47086 2.09898 4.27932 1.02127C4.68805 0.476047 5.28428 0.122812 5.9585 0.0268159C6.63272 -0.07143 7.30395 0.102563 7.84917 0.511296C8.35765 0.89228 8.73264 1.37676 9.00937 1.87024C9.28611 1.37676 9.6611 0.89153 10.1696 0.511296C10.7141 0.102563 11.3838 -0.07143 12.0602 0.0268159C12.7345 0.122812 13.3307 0.476047 13.7394 1.02127C14.5524 2.10498 14.3897 3.46617 13.3307 4.50113H14.2502C16.3178 4.50113 17.9993 6.18331 17.9993 8.25097ZM9.75409 4.50113C9.85684 4.50113 11.1048 4.47488 12.2822 3.43017C12.5725 3.15344 13.0202 2.56171 12.5395 1.92049C12.3715 1.69625 12.1255 1.55075 11.848 1.511C11.572 1.47426 11.2938 1.5425 11.0695 1.71125C10.1111 2.42972 9.83209 3.82466 9.76534 4.27314L9.76684 4.28889L9.75409 4.50113ZM8.25566 4.50113H8.26466C8.26466 4.50113 8.25266 4.28064 8.25341 4.27314C8.18741 3.82691 7.90767 2.43047 6.94846 1.71125C6.76472 1.57325 6.54573 1.50125 6.32074 1.50125C5.96825 1.50125 5.64726 1.697 5.47852 1.92124C4.99779 2.56246 5.44627 3.15344 5.75601 3.44892C6.90721 4.46963 8.14916 4.50038 8.25491 4.50113H8.25566ZM13.4994 9.00094C13.4994 8.58621 13.1635 8.25097 12.7495 8.25097C12.6272 8.25097 9.74959 8.22547 9.74959 6.00107H8.24966C8.24966 8.20297 5.38628 8.25022 5.24903 8.25097C4.83505 8.25097 4.49981 8.58696 4.49981 9.00094C4.49981 9.41492 4.8358 9.75091 5.24978 9.75091C6.31249 9.75091 8.02242 9.38492 8.99963 8.20897C9.97683 9.38568 11.6868 9.75091 12.7495 9.75091C13.1635 9.75091 13.4994 9.41567 13.4994 9.00094Z" fill="#EC4969"/>
</svg>
