<svg width="33" height="25" viewBox="0 0 33 25" fill="none" xmlns="http://www.w3.org/2000/svg">
<path d="M20 23.435C20.0003 23.0203 20.1654 22.6227 20.4588 22.3296L28.4596 14.3288C28.7017 14.0867 28.8938 13.7993 29.0249 13.4829C29.156 13.1666 29.2234 12.8275 29.2234 12.4851C29.2234 12.1426 29.156 11.8036 29.0249 11.4872C28.8938 11.1709 28.7017 10.8834 28.4596 10.6413L20.4692 2.651C20.1843 2.35597 20.0266 1.96083 20.0302 1.55068C20.0338 1.14053 20.1983 0.748195 20.4883 0.458165C20.7783 0.168136 21.1707 0.00362299 21.5808 5.81864e-05C21.991 -0.00350661 22.3861 0.154164 22.6811 0.439111L30.6715 8.42318C31.7458 9.49967 32.3492 10.9584 32.3492 12.4793C32.3492 14.0002 31.7458 15.459 30.6715 16.5355L22.6707 24.5415C22.4519 24.7604 22.1731 24.9095 21.8696 24.9699C21.5661 25.0303 21.2514 24.9993 20.9655 24.8809C20.6796 24.7624 20.4352 24.5618 20.2634 24.3044C20.0915 24.0471 19.9998 23.7445 20 23.435Z" fill="#404042"/>
<path d="M12.3493 1.56499C12.3489 1.97972 12.1839 2.37733 11.8904 2.67041L3.88967 10.6712C3.6475 10.9133 3.4554 11.2007 3.32434 11.5171C3.19328 11.8334 3.12582 12.1725 3.12582 12.5149C3.12582 12.8574 3.19328 13.1964 3.32434 13.5128C3.4554 13.8291 3.6475 14.1166 3.88967 14.3587L11.88 22.349C12.1649 22.644 12.3226 23.0392 12.319 23.4493C12.3155 23.8595 12.151 24.2518 11.8609 24.5418C11.5709 24.8319 11.1786 24.9964 10.7684 24.9999C10.3583 25.0035 9.96313 24.8458 9.66811 24.5609L1.67778 16.5768C0.603404 15.5003 0 14.0416 0 12.5207C0 10.9998 0.603404 9.54098 1.67778 8.46449L9.67854 0.458521C9.89731 0.23961 10.1761 0.0905133 10.4796 0.0300966C10.7832 -0.03032 11.0978 0.000659069 11.3837 0.119114C11.6696 0.237569 11.914 0.438175 12.0859 0.69555C12.2578 0.952924 12.3494 1.2555 12.3493 1.56499Z" fill="#404042"/>
</svg>
