<svg width="25" height="26" viewBox="0 0 25 26" fill="none" xmlns="http://www.w3.org/2000/svg">
<path d="M12.4995 25.0152C11.9214 25.0152 11.3443 24.935 10.7829 24.7746L3.77693 22.7736C1.55306 22.1382 0 20.079 0 17.7655V4.18274C0 3.60776 0.466647 3.14112 1.04162 3.14112C1.6166 3.14112 2.08325 3.60776 2.08325 4.18274V17.7655C2.08325 19.154 3.0155 20.3894 4.34982 20.7706L11.3558 22.7715C12.1047 22.9851 12.8953 22.9851 13.6453 22.7715L20.6502 20.7706C21.9845 20.3894 22.9168 19.154 22.9168 17.7655V3.14112C22.9168 2.56614 23.3834 2.09949 23.9584 2.09949C24.5334 2.09949 25 2.56614 25 3.14112V17.7655C25 20.0779 23.4469 22.1372 21.2231 22.7736L14.2171 24.7746C13.6546 24.935 13.0776 25.0152 12.5005 25.0152H12.4995ZM18.7732 0.177697C18.0149 -0.1025 17.1701 -0.0327113 16.4191 0.267276L15.5056 0.631844C14.3192 1.10578 13.5401 2.25574 13.5401 3.53381V18.6332C13.1984 18.7207 12.8495 18.7655 12.4984 18.7655C12.1474 18.7655 11.7985 18.7207 11.4568 18.6332V3.53381C11.4568 2.25574 10.6787 1.10578 9.49127 0.631844L8.57673 0.266235C7.82572 -0.0337529 6.98096 -0.103542 6.22266 0.177697C4.95709 0.646427 4.16441 1.82659 4.16441 3.11716V16.3604C4.16441 17.7551 5.08937 18.9811 6.42994 19.3644L10.7798 20.6081C11.3402 20.7675 11.9183 20.8477 12.4964 20.8477C13.0745 20.8477 13.6526 20.7675 14.2129 20.6081L18.5628 19.3644C19.9044 18.9811 20.8283 17.7551 20.8283 16.3604V3.11716C20.8283 1.82659 20.0346 0.645386 18.769 0.177697H18.7732Z" fill="#EC4969"/>
</svg>
