<svg width="25" height="25" viewBox="0 0 25 25" fill="none" xmlns="http://www.w3.org/2000/svg">
<path d="M13.4447 15.8158L5.19703 24.0635C4.91977 24.3546 4.58708 24.5873 4.21853 24.748C3.84998 24.9086 3.45303 24.9938 3.05103 24.9987C2.64903 25.0036 2.25012 24.9281 1.87776 24.7765C1.50541 24.6249 1.16714 24.4004 0.882862 24.1161C0.598586 23.8318 0.374049 23.4936 0.222468 23.1212C0.0708862 22.7488 -0.0046776 22.3499 0.00022407 21.9479C0.00512574 21.5459 0.0903938 21.149 0.251009 20.7804C0.411625 20.4119 0.644343 20.0792 0.935466 19.8019L9.18315 11.5542L13.4447 15.8158ZM17.8279 7.17211C17.2541 6.62367 16.4909 6.31761 15.6971 6.31761C14.9034 6.31761 14.1402 6.62367 13.5663 7.17211L10.656 10.0824L14.9176 14.344L17.8279 11.4337C18.3928 10.8684 18.7101 10.102 18.7101 9.30289C18.7101 8.50376 18.3928 7.73734 17.8279 7.17211ZM5.10868 5.34795L6.71976 5.80736L7.17918 7.41844C7.25319 7.67696 7.40936 7.90435 7.62408 8.06622C7.83881 8.2281 8.1004 8.31566 8.3693 8.31566C8.6382 8.31566 8.89979 8.2281 9.11451 8.06622C9.32923 7.90435 9.48541 7.67696 9.55942 7.41844L10.0188 5.80736L11.6299 5.34795C11.8884 5.27394 12.1158 5.11776 12.2777 4.90304C12.4396 4.68832 12.5271 4.42673 12.5271 4.15783C12.5271 3.88893 12.4396 3.62734 12.2777 3.41261C12.1158 3.19789 11.8884 3.04172 11.6299 2.96771L10.0188 2.50829L9.55942 0.89721C9.48541 0.638694 9.32923 0.411306 9.11451 0.249432C8.89979 0.0875573 8.6382 0 8.3693 0C8.1004 0 7.83881 0.0875573 7.62408 0.249432C7.40936 0.411306 7.25319 0.638694 7.17918 0.89721L6.71976 2.50829L5.10868 2.96771C4.85016 3.04172 4.62278 3.19789 4.4609 3.41261C4.29903 3.62734 4.21147 3.88893 4.21147 4.15783C4.21147 4.42673 4.29903 4.68832 4.4609 4.90304C4.62278 5.11776 4.85016 5.27394 5.10868 5.34795ZM17.5816 17.8208L19.1926 18.2802L19.6521 19.8913C19.7261 20.1498 19.8822 20.3772 20.097 20.5391C20.3117 20.701 20.5733 20.7885 20.8422 20.7885C21.1111 20.7885 21.3727 20.701 21.5874 20.5391C21.8021 20.3772 21.9583 20.1498 22.0323 19.8913L22.4917 18.2802L24.1028 17.8208C24.3613 17.7468 24.5887 17.5906 24.7506 17.3759C24.9124 17.1612 25 16.8996 25 16.6307C25 16.3618 24.9124 16.1002 24.7506 15.8855C24.5887 15.6708 24.3613 15.5146 24.1028 15.4406L22.4917 14.9812L22.0323 13.3701C21.9583 13.1116 21.8021 12.8842 21.5874 12.7223C21.3727 12.5604 21.1111 12.4729 20.8422 12.4729C20.5733 12.4729 20.3117 12.5604 20.097 12.7223C19.8822 12.8842 19.7261 13.1116 19.6521 13.3701L19.1926 14.9812L17.5816 15.4406C17.323 15.5146 17.0957 15.6708 16.9338 15.8855C16.7719 16.1002 16.6843 16.3618 16.6843 16.6307C16.6843 16.8996 16.7719 17.1612 16.9338 17.3759C17.0957 17.5906 17.323 17.7468 17.5816 17.8208ZM18.5097 4.67753L19.9181 5.07978L20.3225 6.49025C20.3883 6.71496 20.5251 6.91228 20.7125 7.05266C20.8999 7.19305 21.1277 7.26892 21.3619 7.26892C21.596 7.26892 21.8239 7.19305 22.0112 7.05266C22.1986 6.91228 22.3355 6.71496 22.4013 6.49025L22.8035 5.08186L24.214 4.67753C24.4387 4.61173 24.636 4.47487 24.7764 4.28749C24.9168 4.1001 24.9927 3.87226 24.9927 3.63812C24.9927 3.40399 24.9168 3.17615 24.7764 2.98876C24.636 2.80137 24.4387 2.66452 24.214 2.59872L22.8056 2.19647L22.4013 0.785994C22.3355 0.561292 22.1986 0.363966 22.0112 0.223585C21.8239 0.0832035 21.596 0.00732791 21.3619 0.00732791C21.1277 0.00732791 20.8999 0.0832035 20.7125 0.223585C20.5251 0.363966 20.3883 0.561292 20.3225 0.785994L19.9202 2.19439L18.5097 2.59872C18.285 2.66452 18.0877 2.80137 17.9473 2.98876C17.807 3.17615 17.7311 3.40399 17.7311 3.63812C17.7311 3.87226 17.807 4.1001 17.9473 4.28749C18.0877 4.47487 18.285 4.61173 18.5097 4.67753Z" fill="#EC4969"/>
</svg>
