<svg width="25" height="26" viewBox="0 0 25 26" fill="none" xmlns="http://www.w3.org/2000/svg">
<path d="M12.5005 0C9.18657 0.00358431 6.00937 1.32164 3.66604 3.66497C1.32271 6.00829 0.00465678 9.1855 0.00107248 12.4995C-0.12913 22.472 11.6245 28.5706 19.6877 22.7251C19.8567 22.6074 20.0008 22.4576 20.1117 22.2841C20.2226 22.1106 20.2981 21.9169 20.3338 21.7142C20.3696 21.5114 20.365 21.3036 20.3202 21.1026C20.2754 20.9017 20.1913 20.7116 20.0728 20.5432C19.9542 20.3749 19.8036 20.2316 19.6295 20.1216C19.4554 20.0117 19.2613 19.9372 19.0584 19.9026C18.8554 19.8679 18.6476 19.8736 18.4469 19.9195C18.2462 19.9654 18.0566 20.0505 17.8888 20.17C11.8964 24.5635 2.98324 19.9429 3.12594 12.4995C3.61758 0.0729127 21.3845 0.0749958 21.8751 12.4995V14.0619C21.8751 14.4763 21.7105 14.8737 21.4175 15.1667C21.1245 15.4597 20.7271 15.6243 20.3127 15.6243C19.8983 15.6243 19.5009 15.4597 19.2079 15.1667C18.9149 14.8737 18.7503 14.4763 18.7503 14.0619V12.4995C18.4878 4.24044 6.51225 4.24148 6.2508 12.4995C6.26121 13.7107 6.62237 14.8929 7.29059 15.9032C7.95881 16.9135 8.90546 17.7085 10.016 18.192C11.1266 18.6756 12.3535 18.8269 13.5483 18.6278C14.743 18.4287 15.8545 17.8877 16.7483 17.0701C17.3687 17.7967 18.1964 18.3163 19.1204 18.5594C20.0444 18.8025 21.0206 18.7573 21.9183 18.4301C22.8159 18.1029 23.5921 17.5091 24.1429 16.7284C24.6937 15.9477 24.9927 15.0173 25 14.0619V12.4995C24.9964 9.1855 23.6784 6.00829 21.335 3.66497C18.9917 1.32164 15.8145 0.00358431 12.5005 0ZM12.5005 15.6243C11.6718 15.6243 10.8769 15.2951 10.2909 14.7091C9.7049 14.1231 9.37567 13.3282 9.37567 12.4995C9.37567 11.6707 9.7049 10.8759 10.2909 10.2898C10.8769 9.70382 11.6718 9.3746 12.5005 9.3746C13.3293 9.3746 14.1241 9.70382 14.7102 10.2898C15.2962 10.8759 15.6254 11.6707 15.6254 12.4995C15.6254 13.3282 15.2962 14.1231 14.7102 14.7091C14.1241 15.2951 13.3293 15.6243 12.5005 15.6243Z" fill="#EC4969"/>
</svg>
