<svg width="18" height="19" viewBox="0 0 18 19" fill="none" xmlns="http://www.w3.org/2000/svg">
<path d="M16.3478 4.18762L11.0978 0.644625C9.8235 -0.214875 8.1765 -0.214875 6.90225 0.644625L1.653 4.18762C0.618 4.88513 0 6.04688 0 7.29638V14.2534C0 16.3211 1.68225 18.0034 3.75 18.0034H14.25C16.3178 18.0034 18 16.3211 18 14.2534V7.29638C18 6.04763 17.382 4.88513 16.3478 4.18762ZM12 12.0034C12 12.8306 11.3273 13.5034 10.5 13.5034H7.5C6.67275 13.5034 6 12.8306 6 12.0034V9.00338C6 8.17613 6.67275 7.50338 7.5 7.50338H10.5C11.3273 7.50338 12 8.17613 12 9.00338V12.0034ZM10.5 9.00338L10.5015 12.0034H7.5V9.00338H10.5Z" fill="#6C6C6F"/>
</svg>
