<svg width="18" height="20" viewBox="0 0 18 20" fill="none" xmlns="http://www.w3.org/2000/svg">
<path d="M2.49295 14.9617H15.5063C15.9068 14.9617 16.3014 14.8653 16.6568 14.6805C17.0121 14.4957 17.3177 14.2281 17.5477 13.9002C17.7777 13.5724 17.9254 13.1939 17.9782 12.7969C18.031 12.3999 17.9874 11.996 17.8511 11.6194L15.4805 5.06537C15.0757 3.60885 14.2049 2.32504 13.0013 1.41028C11.7977 0.495523 10.3277 0.000176281 8.81594 8.45595e-10C7.24224 -2.45973e-05 5.71558 0.536616 4.48802 1.52132C3.26047 2.50602 2.40542 3.87991 2.06405 5.41614L0.110717 11.7333C-0.00428922 12.1063 -0.0301436 12.501 0.0352336 12.8858C0.100611 13.2706 0.255394 13.6346 0.48713 13.9487C0.718865 14.2627 1.02108 14.518 1.36946 14.6939C1.71784 14.8699 2.10266 14.9616 2.49295 14.9617Z" fill="#404042" fill-opacity="0.7"/>
<path d="M5.01312 16.624C5.2039 17.5635 5.7136 18.4082 6.45588 19.0149C7.19816 19.6216 8.12736 19.953 9.08603 19.953C10.0447 19.953 10.9739 19.6216 11.7162 19.0149C12.4585 18.4082 12.9682 17.5635 13.1589 16.624H5.01312Z" fill="#404042" fill-opacity="0.7"/>
</svg>
