<svg width="25" height="25" viewBox="0 0 25 25" fill="none" xmlns="http://www.w3.org/2000/svg">
<path d="M24.0826 10.262L18.9245 5.10391L16.7143 7.31408L20.3135 10.9091H6.88892V14.0353H20.3135L16.7185 17.6303L18.9287 19.8405L24.0868 14.6824C24.6723 14.0956 25.0008 13.3003 25 12.4713C24.9992 11.6424 24.6692 10.8477 24.0826 10.262Z" fill="#EC4969"/>
<path d="M10.4079 21.3296C10.4079 21.4677 10.353 21.6003 10.2553 21.698C10.1576 21.7957 10.0251 21.8506 9.88689 21.8506H3.64715C3.50896 21.8506 3.37644 21.7957 3.27873 21.698C3.18102 21.6003 3.12612 21.4677 3.12612 21.3296V3.64715C3.12612 3.50896 3.18102 3.37644 3.27873 3.27873C3.37644 3.18102 3.50896 3.12613 3.64715 3.12613H9.88689C10.0251 3.12613 10.1576 3.18102 10.2553 3.27873C10.353 3.37644 10.4079 3.50896 10.4079 3.64715V8.66354H13.534V3.64715C13.5327 2.68029 13.148 1.75342 12.4643 1.06975C11.7806 0.386073 10.8538 0.00137828 9.88689 0H3.64715C2.68029 0.00137828 1.75342 0.386073 1.06975 1.06975C0.386073 1.75342 0.00137828 2.68029 0 3.64715V21.3296C0 22.2968 0.384252 23.2245 1.06822 23.9085C1.7522 24.5924 2.67986 24.9767 3.64715 24.9767H9.88689C10.8542 24.9767 11.7818 24.5924 12.4658 23.9085C13.1498 23.2245 13.534 22.2968 13.534 21.3296V16.31H10.4079V21.3296Z" fill="#EC4969"/>
</svg>
