<svg width="25" height="30" viewBox="0 0 25 30" fill="none" xmlns="http://www.w3.org/2000/svg">
<path d="M21.25 10.53V8.74999C21.25 3.91753 17.3325 0 12.5 0C7.66747 0 3.75001 3.91753 3.75001 8.74999V10.53C1.47504 11.5229 0.00328126 13.7679 0 16.25V23.75C0.00410157 27.2001 2.79991 29.9959 6.24997 30H18.75C22.2 29.9959 24.9958 27.2001 25 23.75V16.25C24.9968 13.7679 23.525 11.5229 21.25 10.53ZM13.75 21.2501C13.75 21.9404 13.1904 22.5 12.5 22.5C11.8096 22.5 11.25 21.9404 11.25 21.2501V18.75C11.25 18.0597 11.8096 17.5 12.5 17.5C13.1904 17.5 13.75 18.0597 13.75 18.75V21.2501ZM18.75 10H6.24997V8.75005C6.24997 5.29829 9.04818 2.50002 12.5 2.50002C15.9518 2.50002 18.75 5.29823 18.75 8.75005V10Z" fill="#EC4969"/>
</svg>
