<svg width="18" height="19" viewBox="0 0 18 19" fill="none" xmlns="http://www.w3.org/2000/svg">
<path d="M18 17.2519C18 17.6644 17.6625 18.0019 17.25 18.0019C16.095 18.0019 15.5325 17.1619 15.1275 16.5394C14.7525 15.9769 14.565 15.7519 14.25 15.7519C13.8675 15.7519 13.575 16.0819 13.1175 16.6144C12.5925 17.2369 11.94 18.0019 10.845 18.0019C9.75 18.0019 9.105 17.2294 8.595 16.5994C8.16 16.0744 7.875 15.7519 7.5 15.7519C7.2075 15.7519 7.0275 15.9394 6.63 16.4344C6.09 17.0944 5.3475 18.0019 3.75 18.0019C1.68 18.0019 0 16.3219 0 14.2519C0 12.1819 1.68 10.5019 3.75 10.5019C4.1625 10.5019 4.5 10.8394 4.5 11.2519C4.5 11.6644 4.1625 12.0019 3.75 12.0019C2.5125 12.0019 1.5 13.0144 1.5 14.2519C1.5 15.4894 2.5125 16.5019 3.75 16.5019C4.635 16.5019 5.0025 16.0519 5.4675 15.4819C5.9175 14.9344 6.4725 14.2519 7.5 14.2519C8.6025 14.2519 9.24 15.0244 9.75 15.6544C10.185 16.1794 10.47 16.5019 10.845 16.5019C11.22 16.5019 11.52 16.1719 11.9775 15.6394C12.5025 15.0169 13.155 14.2519 14.25 14.2519C15.345 14.2519 15.9675 15.0919 16.3725 15.7144C16.7475 16.2769 16.935 16.5019 17.25 16.5019C17.6625 16.5019 18 16.8394 18 17.2519ZM6.7425 12.0019H7.4475C8.2425 12.0019 9.0075 11.6869 9.57 11.1244L15.36 5.33438L12.6675 2.64188L6.8775 8.43187C6.315 8.99437 6 9.75937 6 10.5544V11.2594C6 11.6719 6.33 12.0019 6.7425 12.0019ZM17.445 3.24937C17.805 2.88937 18 2.40937 18 1.89937C18 1.38937 17.805 0.909375 17.445 0.556875C16.7025 -0.185625 15.495 -0.185625 14.7525 0.556875L13.7325 1.57687L16.425 4.26937L17.445 3.24937Z" fill="#EC4969"/>
</svg>
