<svg width="26" height="26" viewBox="0 0 26 26" fill="none" xmlns="http://www.w3.org/2000/svg">
<path d="M19.7679 17.5554C21.4309 15.3329 22.1903 12.5629 21.8932 9.80302C21.5961 7.04315 20.2645 4.49829 18.1665 2.68072C16.0685 0.863143 13.3598 -0.0921907 10.5858 0.00702046C7.81171 0.106232 5.17823 1.25262 3.21542 3.21542C1.25262 5.17823 0.106232 7.81171 0.00702046 10.5858C-0.0921907 13.3598 0.863143 16.0685 2.68072 18.1665C4.49829 20.2645 7.04315 21.5961 9.80302 21.8932C12.5629 22.1903 15.3329 21.4309 17.5554 19.7679L22.8679 25.0804L25.0804 22.872L19.7679 17.5554ZM11.0179 18.8304C9.47269 18.8304 7.96222 18.3722 6.67747 17.5137C5.39271 16.6553 4.39136 15.4351 3.80005 14.0076C3.20874 12.58 3.05403 11.0092 3.35547 9.49372C3.65692 7.97824 4.40099 6.58618 5.49359 5.49359C6.58618 4.40099 7.97824 3.65692 9.49372 3.35547C11.0092 3.05403 12.58 3.20874 14.0076 3.80005C15.4351 4.39136 16.6553 5.39271 17.5137 6.67747C18.3722 7.96222 18.8304 9.47269 18.8304 11.0179C18.8284 13.0893 18.0047 15.0753 16.54 16.54C15.0753 18.0047 13.0893 18.8284 11.0179 18.8304Z" fill="#EC4969"/>
</svg>
