<svg width="18" height="14" viewBox="0 0 18 14" fill="none" xmlns="http://www.w3.org/2000/svg">
<path d="M17.8661 6.13591C17.2076 4.69587 14.6253 0 9.00013 0C3.37499 0 0.792674 4.69587 0.134157 6.13591C0.0457583 6.32889 0 6.53866 0 6.75092C0 6.96319 0.0457583 7.17296 0.134157 7.36594C0.792674 8.80448 3.37499 13.5003 9.00013 13.5003C14.6253 13.5003 17.2076 8.80448 17.8661 7.36444C17.9543 7.17167 18 6.96217 18 6.75017C18 6.53818 17.9543 6.32867 17.8661 6.13591ZM9.00013 11.2503C8.1101 11.2503 7.24004 10.9864 6.5 10.4919C5.75996 9.9974 5.18317 9.29458 4.84257 8.47229C4.50197 7.65 4.41285 6.74518 4.58649 5.87224C4.76013 4.99931 5.18872 4.19746 5.81807 3.56811C6.44742 2.93876 7.24927 2.51016 8.12221 2.33653C8.99514 2.16289 9.89997 2.25201 10.7223 2.59261C11.5445 2.93321 12.2474 3.51 12.7418 4.25004C13.2363 4.99008 13.5002 5.86013 13.5002 6.75017C13.4991 7.94331 13.0246 9.08724 12.1809 9.93092C11.3372 10.7746 10.1933 11.2491 9.00013 11.2503Z" fill="#EC4969"/>
<path d="M9.00014 9.75025C10.657 9.75025 12.0002 8.40707 12.0002 6.75017C12.0002 5.09327 10.657 3.75009 9.00014 3.75009C7.34324 3.75009 6.00006 5.09327 6.00006 6.75017C6.00006 8.40707 7.34324 9.75025 9.00014 9.75025Z" fill="#EC4969"/>
</svg>
